<svg xmlns="http://www.w3.org/2000/svg" width="24" height="24" viewBox="0 0 24 24" fill="none">
  <path fill="currentColor" fill-rule="evenodd" clip-rule="evenodd" d="M5.98412 3.85491C11.5185 -0.475276 16.562 1.02861 18.3754 2.48748C19.325 3.25139 19.8525 4.36137 19.74 5.47838C19.6246 6.63619 18.8396 7.60127 17.589 8.01769C16.9376 8.23574 16.4199 8.79425 16.185 9.47233C15.9486 10.1546 16.0443 10.7976 16.3875 11.2168L16.4255 11.266C16.4619 11.273 16.4981 11.2815 16.5338 11.2914C16.9067 11.4039 17.1149 11.463 17.4019 11.3983C17.686 11.3336 18.2178 11.0958 18.9916 10.1603L19.1702 9.96894C19.3712 9.77478 19.6102 9.62431 19.8722 9.52698C20.1341 9.42966 20.4134 9.38758 20.6924 9.4034C21.2805 9.43435 21.8136 9.70587 22.2047 10.0815C22.6549 10.5176 22.8603 11.1647 22.9447 11.7275C23.0362 12.3324 23.0165 13.033 22.8645 13.7448C22.5592 15.1756 21.687 16.7582 19.9243 17.7121C19.3587 18.0174 18.3796 18.5702 16.9052 18.6448C16.744 18.892 16.5673 19.1288 16.3763 19.3538C14.9596 21.0364 13.0084 21.616 11.2723 21.5625C10.5034 21.5379 9.74335 21.3897 9.02144 21.1236C8.7703 21.4352 8.48105 21.7141 8.16047 21.9536C7.57945 22.3729 6.77475 22.6824 5.8153 22.4418C3.95971 21.9775 2.14773 20.1909 1.24455 17.9822C0.760602 16.7962 1.04759 15.7693 1.64549 15.0461C1.96625 14.6593 2.36156 14.3709 2.73859 14.1683C2.41339 13.1178 2.2567 12.0223 2.27434 10.9228C2.32639 8.57197 3.26615 5.98202 5.98412 3.85491ZM17.0516 4.13205C15.9993 3.28515 12.0433 1.79392 7.28542 5.51777C5.10345 7.22424 4.42396 9.20082 4.38597 10.9678C4.36979 12.4936 4.76071 13.9961 5.51846 15.3205C5.58922 15.4396 5.63581 15.5716 5.65558 15.7087C5.67535 15.8459 5.66791 15.9856 5.63369 16.1199C5.59946 16.2542 5.53912 16.3805 5.45611 16.4914C5.37309 16.6024 5.26904 16.6959 5.14987 16.7667C5.03071 16.8374 4.89878 16.884 4.76161 16.9038C4.62445 16.9236 4.48473 16.9161 4.35043 16.8819C4.21614 16.8477 4.0899 16.7873 3.97893 16.7043C3.86796 16.6213 3.77442 16.5173 3.70367 16.3981C3.65677 16.3137 3.60847 16.2255 3.55876 16.1336C3.45233 16.2055 3.35624 16.2917 3.27318 16.3897C3.19504 16.4773 3.14162 16.5841 3.11843 16.6992C3.09695 16.8644 3.12485 17.0323 3.19862 17.1817C3.92313 18.9543 5.29618 20.136 6.32879 20.3963C6.52293 20.4455 6.69737 20.4075 6.92669 20.2415C7.01672 20.1759 7.10488 20.0976 7.19117 20.0066C7.12468 19.9407 7.0604 19.8727 6.99843 19.8026C6.90791 19.6977 6.83894 19.5759 6.79546 19.4443C6.75198 19.3127 6.73485 19.1739 6.74504 19.0357C6.76562 18.7565 6.89624 18.497 7.10817 18.3142C7.32009 18.1314 7.59597 18.0402 7.8751 18.0608C8.15423 18.0814 8.41375 18.212 8.59658 18.4239C9.01018 18.9022 10.0512 19.4143 11.3371 19.4537C12.5708 19.4917 13.844 19.0851 14.7627 17.9948C15.6799 16.906 15.9008 15.8734 15.8121 14.9814C15.7235 14.0923 15.3141 13.2679 14.8119 12.6292C14.629 12.4843 14.252 12.2761 13.7188 12.1003C13.1589 11.9121 12.5734 11.811 11.9828 11.8006C11.703 11.8006 11.4346 11.6895 11.2367 11.4916C11.0388 11.2937 10.9277 11.0253 10.9277 10.7455C10.9277 10.4657 11.0388 10.1973 11.2367 9.99943C11.4346 9.80156 11.703 9.69039 11.9828 9.69039C12.6426 9.69039 13.3263 9.79872 13.9523 9.96894C13.9763 9.56097 14.0593 9.15862 14.1901 8.78159C14.6079 7.57735 15.5603 6.46878 16.9221 6.01578C17.4539 5.83712 17.6143 5.52621 17.6396 5.26736C17.6706 4.9677 17.5355 4.52174 17.0516 4.13205ZM20.6066 11.5179C19.657 12.6574 18.758 13.2553 17.8675 13.4564C17.7906 13.4724 17.7156 13.4851 17.6424 13.4944C17.7733 13.8982 17.8675 14.3259 17.9125 14.7746C17.9645 15.2984 17.9427 15.8269 17.8478 16.3446C18.2685 16.2068 18.6103 16.0211 18.9212 15.8537C20.0326 15.2515 20.5953 14.2583 20.8007 13.3045C20.9034 12.8248 20.909 12.3802 20.857 12.0412C20.8106 11.7289 20.7346 11.6051 20.7304 11.5924C20.702 11.5667 20.6703 11.5449 20.6361 11.5277C20.6239 11.5221 20.6141 11.5188 20.6066 11.5179Z"/>
</svg>
